<svg width="60" height="60" viewBox="0 0 60 60" fill="none" xmlns="http://www.w3.org/2000/svg">
<path d="M3.53734 57.7775C2.33473 56.0605 1.98518 52.8192 2.00048 43.5275C2.03638 21.7487 4.19059 13.6568 11.7775 6.80249C16.9608 2.11966 21.8476 0.53001 31.0249 0.54132C37.3982 0.54932 39.4814 1.01235 44.4466 3.52533C55.5483 9.14404 58.01 15.5505 58.6745 40.5525C59.0486 54.6287 58.9444 55.7228 57.0679 57.421C54.4417 59.7977 51.5304 59.0183 46.2949 54.5369C44.0222 52.5916 41.7631 51 41.2746 51C40.7862 51 38.6289 52.8 36.4806 55C34.3324 57.2 31.8151 59 30.8866 59C29.9581 59 27.0202 57.2 24.3579 55C18.975 50.5518 17.8489 50.2429 15.8531 52.6667C14.1728 54.7072 6.98011 60 5.88732 60C5.45102 60 4.39353 58.9998 3.53734 57.7775ZM32.2964 32.8829C33.4977 32.2686 35.1963 30.8672 36.0711 29.7688C37.6472 27.7896 37.6845 27.7947 40.2349 30.3452C43.7754 33.8856 47.4373 34.6295 51.5862 32.6511C55.5846 30.7444 56.2622 27.3219 52.7409 26.8195C50.2702 26.467 49.0566 23.2291 51.1567 22.5929C56.001 21.1255 56.0806 21.0553 55.062 19.152C53.6961 16.5997 48.5927 14.6296 45.4139 15.4274C43.9809 15.787 41.6807 17.209 40.3024 18.5873L37.7965 21.0933L35.4738 18.5871C30.9246 13.6784 23.3584 14.4351 20.4335 20.0912C18.6579 23.5248 18.6433 25.7635 20.3762 28.8899C22.8232 33.3049 28.0486 35.0553 32.2964 32.8829H32.2964ZM31.3606 25.5478C30.5852 23.5272 31.7384 22 34.0397 22C35.4434 22 35.9806 22.692 35.9806 24.5C35.9806 26.3462 35.4494 27 33.9493 27C32.832 27 31.6671 26.3465 31.3606 25.5478Z" fill="#CA1111"/>
<path d="M57.0304 24.588C57.0304 29.9136 52.5532 34.2309 47.0304 34.2309C41.5075 34.2309 37.0304 29.9136 37.0304 24.588C37.0304 19.2624 41.5075 14.9451 47.0304 14.9451C52.5532 14.9451 57.0304 19.2624 57.0304 24.588Z" fill="white"/>
<path d="M38.8161 24.3571C38.8161 29.6827 34.339 34 28.8161 34C23.2933 34 18.8162 29.6827 18.8162 24.3571C18.8162 19.0315 23.2933 14.7142 28.8161 14.7142C34.339 14.7142 38.8161 19.0315 38.8161 24.3571Z" fill="white"/>
<path d="M37.9856 24.3341C37.9856 27.0956 35.747 29.3342 32.9856 29.3342C30.2242 29.3342 27.9856 27.0956 27.9856 24.3341C27.9856 21.5727 30.2242 19.3341 32.9856 19.3341C35.747 19.3341 37.9856 21.5727 37.9856 24.3341Z" fill="#0000FF"/>
<path d="M56.9767 24.0309C56.9767 26.7923 54.7381 29.0309 51.9767 29.0309C49.2153 29.0309 46.9767 26.7923 46.9767 24.0309C46.9767 21.2695 49.2153 19.0308 51.9767 19.0308C54.7381 19.0308 56.9767 21.2695 56.9767 24.0309Z" fill="#0000FF"/>
</svg>
