<svg width="60" height="60" viewBox="0 0 60 60" fill="none" xmlns="http://www.w3.org/2000/svg">
<path d="M3.53734 57.7775C2.33473 56.0605 1.98518 52.8192 2.00048 43.5275C2.03638 21.7488 4.19059 13.6568 11.7775 6.80249C16.9608 2.11966 21.8475 0.53001 31.0249 0.54132C37.3982 0.54932 39.4814 1.01235 44.4466 3.52533C55.5483 9.14404 58.0099 15.5505 58.6744 40.5525C59.0485 54.6287 58.9444 55.7229 57.0679 57.4211C54.4416 59.7978 51.5304 59.0184 46.2948 54.537C44.0222 52.5917 41.7631 51 41.2746 51C40.7862 51 38.6289 52.8 36.4806 55C34.3324 57.2 31.8151 59 30.8866 59C29.9581 59 27.0201 57.2 24.3578 55C18.975 50.5518 17.8489 50.2429 15.8531 52.6667C14.1728 54.7072 6.98011 60 5.88732 60C5.45102 60 4.39353 58.9998 3.53734 57.7775ZM32.2964 32.883C33.4977 32.2686 35.1963 30.8672 36.071 29.7688C37.6472 27.7896 37.6845 27.7948 40.2349 30.3452C43.7754 33.8857 47.4373 34.6295 51.5862 32.6511C55.5846 30.7444 56.2622 27.3219 52.7408 26.8195C50.2702 26.4671 49.0566 23.2291 51.1567 22.5929C56.001 21.1255 56.0806 21.0553 55.062 19.152C53.6961 16.5997 48.5927 14.6296 45.4139 15.4274C43.9809 15.7871 41.6807 17.209 40.3024 18.5873L37.7964 21.0933L35.4737 18.5871C30.9245 13.6784 23.3584 14.4351 20.4335 20.0912C18.6579 23.5248 18.6433 25.7635 20.3761 28.8899C22.8232 33.305 28.0486 35.0553 32.2964 32.883H32.2964ZM31.3606 25.5479C30.5852 23.5272 31.7384 22 34.0397 22C35.4434 22 35.9806 22.692 35.9806 24.5C35.9806 26.3462 35.4494 27 33.9493 27C32.832 27 31.6671 26.3465 31.3606 25.5479Z" fill="#0000FF"/>
<path d="M57.0304 24.588C57.0312 25.8548 56.7731 27.1093 56.271 28.28C55.7688 29.4506 55.0323 30.5143 54.1036 31.4104C53.175 32.3064 52.0723 33.0172 50.8586 33.5022C49.645 33.9872 48.3441 34.2368 47.0304 34.2368C45.7166 34.2368 44.4158 33.9872 43.2021 33.5022C41.9885 33.0172 40.8858 32.3064 39.9571 31.4104C39.0285 30.5143 38.292 29.4506 37.7898 28.28C37.2877 27.1093 37.0296 25.8548 37.0304 24.588C37.0296 23.3212 37.2877 22.0666 37.7898 20.896C38.292 19.7254 39.0285 18.6617 39.9571 17.7656C40.8858 16.8695 41.9885 16.1587 43.2021 15.6738C44.4158 15.1888 45.7166 14.9391 47.0304 14.9391C48.3441 14.9391 49.645 15.1888 50.8586 15.6738C52.0723 16.1587 53.175 16.8695 54.1036 17.7656C55.0323 18.6617 55.7688 19.7254 56.271 20.896C56.7731 22.0666 57.0312 23.3212 57.0304 24.588Z" fill="white"/>
<path d="M38.8161 24.3571C38.8169 25.6239 38.5589 26.8785 38.0567 28.0491C37.5545 29.2197 36.8181 30.2835 35.8894 31.1795C34.9607 32.0756 33.8581 32.7864 32.6444 33.2713C31.4308 33.7563 30.1299 34.006 28.8161 34.006C27.5024 34.006 26.2015 33.7563 24.9879 33.2713C23.7742 32.7864 22.6716 32.0756 21.7429 31.1795C20.8142 30.2835 20.0778 29.2197 19.5756 28.0491C19.0734 26.8785 18.8154 25.6239 18.8162 24.3571C18.8154 23.0903 19.0734 21.8358 19.5756 20.6652C20.0778 19.4945 20.8142 18.4308 21.7429 17.5347C22.6716 16.6387 23.7742 15.9279 24.9879 15.4429C26.2015 14.9579 27.5024 14.7083 28.8161 14.7083C30.1299 14.7083 31.4308 14.9579 32.6444 15.4429C33.8581 15.9279 34.9607 16.6387 35.8894 17.5347C36.8181 18.4308 37.5545 19.4945 38.0567 20.6652C38.5589 21.8358 38.8169 23.0903 38.8161 24.3571Z" fill="white"/>
<path d="M28.3795 25.4893C28.832 25.521 28.5621 26.1441 28.3294 26.2774C27.6988 26.6387 27.0222 26.0078 26.8756 25.3843C26.6133 24.2689 27.5221 23.2767 28.53 23.1252C30.009 22.9027 31.2577 24.2132 31.3875 25.6995C31.5605 27.6805 29.9571 29.3144 28.1289 29.4297C25.8282 29.5747 23.9553 27.5196 23.8676 25.1741C23.7615 22.3335 26.0826 20.0399 28.7305 19.9729C31.8509 19.894 34.3562 22.7053 34.3955 25.9096C34.4408 29.6091 31.3957 32.5672 27.9284 32.5819C23.9885 32.5986 20.848 29.027 20.8597 24.964C20.8726 20.4058 24.6442 16.7813 28.931 16.8207C33.6902 16.8643 37.4672 21.198 37.4035 26.1198" stroke="black" stroke-width="0.862194"/>
<path d="M46.4009 25.3396C46.8533 25.3712 46.5835 25.9944 46.3508 26.1277C45.7202 26.489 45.0436 25.8581 44.8969 25.2346C44.6347 24.1192 45.5435 23.127 46.5513 22.9754C48.0303 22.753 49.2791 24.0635 49.4089 25.5498C49.5819 27.5308 47.9785 29.1647 46.1503 29.2799C43.8496 29.425 41.9766 27.3698 41.889 25.0244C41.7828 22.1838 44.104 19.8902 46.7518 19.8232C49.8723 19.7443 52.3776 22.5556 52.4169 25.7599C52.4622 29.4594 49.4171 32.4175 45.9497 32.4322C42.0099 32.4489 38.8694 28.8773 38.881 24.8143C38.894 20.2561 42.6656 16.6316 46.9524 16.6709C51.7116 16.7146 55.4885 21.0483 55.4248 25.9701" stroke="black" stroke-width="0.862194"/>
</svg>
