<svg width="60" height="60" viewBox="0 0 60 60" fill="none" xmlns="http://www.w3.org/2000/svg">
<path d="M57.0304 24.588C57.0312 25.8548 56.7731 27.1093 56.271 28.28C55.7688 29.4506 55.0323 30.5143 54.1036 31.4104C53.175 32.3064 52.0723 33.0172 50.8586 33.5022C49.645 33.9872 48.3441 34.2368 47.0304 34.2368C45.7166 34.2368 44.4158 33.9872 43.2021 33.5022C41.9885 33.0172 40.8858 32.3064 39.9571 31.4104C39.0285 30.5143 38.292 29.4506 37.7898 28.28C37.2877 27.1093 37.0296 25.8548 37.0304 24.588C37.0296 23.3212 37.2877 22.0666 37.7898 20.896C38.292 19.7254 39.0285 18.6617 39.9571 17.7656C40.8858 16.8695 41.9885 16.1587 43.2021 15.6738C44.4158 15.1888 45.7166 14.9391 47.0304 14.9391C48.3441 14.9391 49.645 15.1888 50.8586 15.6738C52.0723 16.1587 53.175 16.8695 54.1036 17.7656C55.0323 18.6617 55.7688 19.7254 56.271 20.896C56.7731 22.0666 57.0312 23.3212 57.0304 24.588Z" fill="white"/>
<path d="M38.8161 24.3571C38.8169 25.6239 38.5589 26.8785 38.0567 28.0491C37.5545 29.2197 36.8181 30.2835 35.8894 31.1795C34.9607 32.0756 33.8581 32.7864 32.6444 33.2713C31.4308 33.7563 30.1299 34.006 28.8161 34.006C27.5024 34.006 26.2015 33.7563 24.9879 33.2713C23.7742 32.7864 22.6716 32.0756 21.7429 31.1795C20.8142 30.2835 20.0778 29.2197 19.5756 28.0491C19.0734 26.8785 18.8154 25.6239 18.8162 24.3571C18.8154 23.0903 19.0734 21.8358 19.5756 20.6652C20.0778 19.4945 20.8142 18.4308 21.7429 17.5347C22.6716 16.6387 23.7742 15.9279 24.9879 15.4429C26.2015 14.9579 27.5024 14.7083 28.8161 14.7083C30.1299 14.7083 31.4308 14.9579 32.6444 15.4429C33.8581 15.9279 34.9607 16.6387 35.8894 17.5347C36.8181 18.4308 37.5545 19.4945 38.0567 20.6652C38.5589 21.8358 38.8169 23.0903 38.8161 24.3571Z" fill="white"/>
<path d="M37.9856 24.3342C37.9856 25.6603 37.4588 26.932 36.5211 27.8697C35.5834 28.8074 34.3117 29.3342 32.9856 29.3342C31.6595 29.3342 30.3877 28.8074 29.4501 27.8697C28.5124 26.932 27.9856 25.6603 27.9856 24.3342C27.9856 23.0081 28.5124 21.7363 29.4501 20.7987C30.3877 19.861 31.6595 19.3341 32.9856 19.3341C34.3117 19.3341 35.5834 19.861 36.5211 20.7987C37.4588 21.7363 37.9856 23.0081 37.9856 24.3342Z" fill="#0000FF"/>
<path d="M56.9767 24.0309C56.9767 25.3569 56.4499 26.6287 55.5122 27.5664C54.5745 28.5041 53.3028 29.0309 51.9767 29.0309C50.6506 29.0309 49.3788 28.5041 48.4411 27.5664C47.5035 26.6287 46.9767 25.3569 46.9767 24.0309C46.9767 22.7048 47.5035 21.433 48.4411 20.4953C49.3788 19.5577 50.6506 19.0308 51.9767 19.0308C53.3028 19.0308 54.5745 19.5577 55.5122 20.4953C56.4499 21.433 56.9767 22.7048 56.9767 24.0309Z" fill="#0000FF"/>
</svg>
